<svg version="1.1" id="Layer_1" xmlns="http://www.w3.org/2000/svg" xmlns:xlink="http://www.w3.org/1999/xlink" x="0px" y="0px" viewBox="0 0 773.2 129.1" enable-background="new 0 0 773.2 129.1" xml:space="preserve">
<path fill="#268936" d="M595.2,78.4c0,16.4-4.8,29.3-14.4,38.6c-9.6,9.3-22.9,13.9-40,13.9c-10.7,0-20.1-2.1-28.3-6.4
	c-8.2-4.3-14.5-10.4-18.8-18.3c-4.4-7.9-6.6-17.2-6.6-27.8c0-16.5,4.7-29.3,14.2-38.5c9.5-9.2,22.9-13.7,40.1-13.7
	c10.7,0,20.1,2.1,28.3,6.3c8.2,4.2,14.4,10.3,18.8,18.2C593,58.6,595.2,67.8,595.2,78.4z M518.1,78.4c0,10,1.8,17.6,5.4,22.7
	c3.6,5.1,9.5,7.7,17.7,7.7c8.1,0,13.9-2.6,17.5-7.6c3.6-5.1,5.3-12.7,5.3-22.7c0-10-1.8-17.5-5.4-22.5c-3.6-5-9.5-7.5-17.6-7.5
	c-8.1,0-14,2.5-17.5,7.5C519.9,60.8,518.1,68.4,518.1,78.4z"/>
<path fill="#002134" d="M99.8,129.1H69.4v-59c0-7.3-1.3-12.8-4-16.4c-2.7-3.6-6.9-5.5-12.7-5.5c-7.8,0-13.4,2.6-16.9,7.8
	c-3.5,5.2-5.3,13.7-5.3,25.6v47.5H0v-101h23.2L27.3,41H29c3-4.6,7.3-8.3,13-10.9c5.6-2.6,12.1-3.9,19.4-3.9c16.7,0,28,4.9,33.9,14.8
	H98c3-4.7,7.4-8.3,13.2-10.9c5.8-2.6,12.4-3.9,19.7-3.9c12.6,0,22.2,2.9,28.7,8.8c6.5,5.9,9.7,15.3,9.7,28.2v65.9h-30.5v-59
	c0-7.3-1.4-12.8-4-16.4c-2.7-3.6-6.9-5.5-12.7-5.5c-7.4,0-13,2.4-16.7,7.2c-3.7,4.8-5.5,12.5-5.5,23V129.1z"/>
<path fill="#002134" d="M234.5,130.9c-17.9,0-32-4.5-42.1-13.5c-10.1-9-15.1-21.7-15.1-38.1c0-16.9,4.7-30,14-39.3
	c9.3-9.2,22.2-13.9,38.7-13.9c15.7,0,28,4.1,36.8,12.2c8.8,8.1,13.2,19.4,13.2,33.7v13.4h-71.9c0.3,7.8,2.9,13.9,7.7,18.3
	c4.8,4.4,11.5,6.6,20.1,6.6c6.7,0,13.1-0.6,19-1.9c6-1.3,12.2-3.3,18.7-6.1v21.3c-5.3,2.4-11,4.2-17,5.4
	C250.6,130.3,243.2,130.9,234.5,130.9z M230.2,45.8c-6.4,0-11.5,1.8-15.2,5.5c-3.7,3.7-5.7,9-6.3,15.8h42.7
	c-0.1-6.8-2.1-12.1-5.9-15.8C241.8,47.7,236.7,45.8,230.2,45.8z"/>
<path fill="#002134" d="M327.7,130.9c-13.1,0-23.4-4.6-30.8-13.8c-7.5-9.2-11.2-22-11.2-38.3c0-16.6,3.8-29.5,11.4-38.7
	c7.6-9.2,18.1-13.9,31.4-13.9c14,0,24.7,4.9,32.1,14.8h1c-1.5-7.5-2.3-14.2-2.3-20.2V0h30.5v129.1h-23.3l-5.9-13.1h-1.3
	C352.4,125.9,341.9,130.9,327.7,130.9z M338.4,109c7.8,0,13.5-2.1,17.1-6.1c3.6-4.1,5.6-11,5.9-20.9v-3c0-10.8-1.8-18.6-5.5-23.3
	c-3.7-4.7-9.7-7-18-7c-6.8,0-12,2.6-15.8,7.8c-3.8,5.2-5.6,12.8-5.6,22.7c0,9.9,1.9,17.4,5.7,22.4C325.9,106.5,331.3,109,338.4,109z
	"/>
<path fill="#002134" d="M450.5,130.9c-34.7,0-52-17.3-52-51.8c0-17.2,4.7-30.3,14.2-39.3c9.4-9.1,23-13.6,40.6-13.6
	c12.9,0,24.5,2.3,34.7,6.9l-9,21.3c-4.8-1.7-9.2-3.2-13.4-4.3c-4.1-1.1-8.2-1.7-12.4-1.7c-15.8,0-23.7,10.2-23.7,30.5
	c0,19.8,7.9,29.6,23.7,29.6c5.8,0,11.3-0.7,16.2-2.1c5-1.4,10-3.6,15-6.6v23.6c-4.9,2.8-9.9,4.8-14.9,5.9
	C464.5,130.4,458.2,130.9,450.5,130.9z"/>
<path fill="#002134" d="M703.7,129.1h-30.4v-59c0-7.3-1.3-12.8-4-16.4c-2.7-3.6-6.9-5.5-12.7-5.5c-7.8,0-13.4,2.6-16.9,7.8
	c-3.5,5.2-5.3,13.7-5.3,25.6v47.5H604v-101h23.2l4.1,12.9h1.7c3-4.6,7.3-8.3,12.9-10.9c5.6-2.6,12.1-3.9,19.4-3.9
	c16.7,0,28,4.9,33.9,14.8h2.7c3-4.7,7.4-8.3,13.2-10.9c5.8-2.6,12.4-3.9,19.7-3.9c12.6,0,22.2,2.9,28.6,8.8
	c6.5,5.9,9.7,15.3,9.7,28.2v65.9h-30.5v-59c0-7.3-1.3-12.8-4-16.4c-2.7-3.6-6.9-5.5-12.7-5.5c-7.4,0-13,2.4-16.7,7.2
	c-3.7,4.8-5.5,12.5-5.5,23V129.1z"/>
</svg>
